<?xml version="1.0" encoding="UTF-8" standalone="no"?>
<!--
  - Copyright 2017-2020 Aljoscha Grebe
  - Copyright 2023-2024 Axel JOLY (Azn9) <contact@azn9.dev>
  -
  - Licensed under the Apache License, Version 2.0 (the "License");
  - you may not use this file except in compliance with the License.
  - You may obtain a copy of the License at
  -
  -   https://www.apache.org/licenses/LICENSE-2.0
  -
  - Unless required by applicable law or agreed to in writing, software
  - distributed under the License is distributed on an "AS IS" BASIS,
  - WITHOUT WARRANTIES OR CONDITIONS OF ANY KIND, either express or implied.
  - See the License for the specific language governing permissions and
  - limitations under the License.
  -->

<svg
        id="Layer_1"
        viewBox="0 0 245 240"
        version="1.1"
        xml:space="preserve"
        xmlns="http://www.w3.org/2000/svg"
>
    <style id="style1">.st0{fill:#7289DA;}</style>
    <path
            fill="#5865f2"
            d="m 185.24845,62.902892 a 149.6824,149.6824 0 0 0 -37.33874,-11.48775 102.57835,102.57835 0 0 0 -4.78301,9.722594 139.04875,139.04875 0 0 0 -41.43846,0 103.01964,103.01964 0 0 0 -4.783005,-9.722594 150.7358,150.7358 0 0 0 -37.36721,11.51622 C 35.907708,97.892842 29.5019,131.98598 32.704804,165.59512 v 0 a 150.50803,150.50803 0 0 0 45.794414,22.98974 110.60696,110.60696 0 0 0 9.808005,-15.81523 97.396762,97.396762 0 0 1 -15.445116,-7.3738 c 1.295397,-0.93952 2.562323,-1.90751 3.786544,-2.84703 a 107.57488,107.57488 0 0 0 91.560349,0 c 1.23846,1.0107 2.50539,1.97869 3.78655,2.84703 a 97.766876,97.766876 0 0 1 -15.47359,7.38803 109.6105,109.6105 0 0 0 9.80801,15.801 149.82475,149.82475 0 0 0 45.82288,-22.9755 v 0 c 3.75808,-38.97579 -6.42004,-72.755754 -26.9044,-102.706468 z M 92.364228,144.92571 c -8.925419,0 -16.299217,-8.09979 -16.299217,-18.06438 0,-9.96459 7.117565,-18.13555 16.270747,-18.13555 9.153192,0 16.470042,8.17096 16.313462,18.13555 -0.15659,9.96459 -7.18874,18.06438 -16.284992,18.06438 z m 60.129192,0 c -8.93966,0 -16.28499,-8.09979 -16.28499,-18.06438 0,-9.96459 7.11757,-18.13555 16.28499,-18.13555 9.16742,0 16.42734,8.17096 16.27075,18.13555 -0.15658,9.96459 -7.1745,18.06438 -16.27075,18.06438 z"
            id="path1-9"
            style="stroke-width:1.42351"/></svg>
